
<svg width="114" height="100" viewBox="0 0 114 100" fill="none" xmlns="http://www.w3.org/2000/svg" xmlns:xlink="http://www.w3.org/1999/xlink">
<rect width="100" height="100" fill="url(#pattern0)"/>
<path d="M84.364 74C84.124 74 83.92 73.928 83.752 73.784C83.608 73.616 83.536 73.412 83.536 73.172V58.16H80.476C80.236 58.16 80.032 58.088 79.864 57.944C79.72 57.776 79.648 57.572 79.648 57.332V56.108C79.648 55.868 79.72 55.676 79.864 55.532C80.032 55.364 80.236 55.28 80.476 55.28H83.536V53.48C83.536 49.4 85.6 47.36 89.728 47.36H91.888C92.128 47.36 92.32 47.444 92.464 47.612C92.632 47.756 92.716 47.948 92.716 48.188V49.412C92.716 49.652 92.632 49.856 92.464 50.024C92.32 50.168 92.128 50.24 91.888 50.24H89.8C88.72 50.24 87.964 50.528 87.532 51.104C87.1 51.656 86.884 52.508 86.884 53.66V55.28H91.528C91.768 55.28 91.96 55.364 92.104 55.532C92.272 55.676 92.356 55.868 92.356 56.108V57.332C92.356 57.572 92.272 57.776 92.104 57.944C91.96 58.088 91.768 58.16 91.528 58.16H86.884V73.172C86.884 73.412 86.8 73.616 86.632 73.784C86.488 73.928 86.296 74 86.056 74H84.364ZM98.7916 80.84C98.5996 80.84 98.4316 80.768 98.2876 80.624C98.1436 80.48 98.0716 80.312 98.0716 80.12C98.0716 79.952 98.1316 79.736 98.2516 79.472L101.024 72.884L94.1476 56.648C94.0276 56.336 93.9676 56.132 93.9676 56.036C93.9676 55.82 94.0396 55.64 94.1836 55.496C94.3276 55.352 94.5076 55.28 94.7236 55.28H96.4876C96.8716 55.28 97.1596 55.484 97.3516 55.892L102.824 68.996L108.44 55.892C108.632 55.484 108.932 55.28 109.34 55.28H111.032C111.248 55.28 111.428 55.352 111.572 55.496C111.716 55.64 111.788 55.808 111.788 56C111.788 56.072 111.728 56.288 111.608 56.648L101.384 80.228C101.192 80.636 100.892 80.84 100.484 80.84H98.7916Z" fill="black"/>
<defs>
<pattern id="pattern0" patternContentUnits="objectBoundingBox" width="1" height="1">
<use xlink:href="#image0" transform="scale(0.000520833)"/>
</pattern>
<image id="image0" width="1920" height="1920" xlink:href="./src/assets/logo.png"></image>
</devs>
</svg>
